<?xml version="1.0" encoding="UTF-8" standalone="no"?>
<svg width="60px" height="60px" viewBox="0 0 60 60" version="1.1" xmlns="http://www.w3.org/2000/svg" xmlns:xlink="http://www.w3.org/1999/xlink" xmlns:sketch="http://www.bohemiancoding.com/sketch/ns">
    <!-- Generator: Sketch 3.2.2 (9983) - http://www.bohemiancoding.com/sketch -->
    <title>Businesswoman</title>
    <desc>Created with Sketch.</desc>
    <defs></defs>
    <g id="stroked" stroke="none" stroke-width="1" fill="none" fill-rule="evenodd" sketch:type="MSPage">
        <g id="Interface" sketch:type="MSLayerGroup" transform="translate(-117.000000, -1555.000000)" stroke="#ffffff" stroke-width="2" stroke-linecap="round" stroke-linejoin="round">
            <g id="Businesswomen" transform="translate(127.000000, 1559.000000)" sketch:type="MSShapeGroup">
                <path d="M7,14 C7,19.6666667 4,31 4,31 C4,31 11,33 20,33 C29,33 36,31 36,31 C36,31 33,19.6666667 33,14 L33,13.1871189 C33,5.90407423 27.1001976,0 19.8095764,0 L20.1904236,0 C12.9055538,0 7,5.89696884 7,13.1871189 C7,13.1871189 7,12.6664921 7,14 Z" id="Rectangle-2323"></path>
                <path d="M15.4423077,33 L12.5,39.0454545 L6.49532746,39.0454545 C2.90063298,39.0454545 0,41.9454283 0,45.5227273 L0,52 M41,52 L41,45.5227273 C41,41.9527074 38.0919428,39.0454545 34.5046725,39.0454545 L27.6346154,39.0454545 L24.6923077,33" id="Rectangle-2326"></path>
                <polygon id="Triangle-105" transform="translate(14.500000, 43.000000) rotate(-45.000000) translate(-14.500000, -43.000000) " points="15.2071068 38.5 17.2071068 47.5 11.7928932 47.5 "></polygon>
                <polygon id="Triangle-104" transform="translate(25.500000, 43.000000) scale(-1, 1) rotate(-45.000000) translate(-25.500000, -43.000000) " points="26.2071068 38.5 28.2071068 47.5 22.7928932 47.5 "></polygon>
            </g>
        </g>
    </g>
</svg>