<?xml version="1.0" encoding="UTF-8" standalone="no"?>
<svg width="60px" height="60px" viewBox="0 0 60 60" version="1.1" xmlns="http://www.w3.org/2000/svg" xmlns:xlink="http://www.w3.org/1999/xlink" xmlns:sketch="http://www.bohemiancoding.com/sketch/ns">
    <!-- Generator: Sketch 3.2.2 (9983) - http://www.bohemiancoding.com/sketch -->
    <title>Femalenurse</title>
    <desc>Created with Sketch.</desc>
    <defs></defs>
    <g id="stroked" stroke="none" stroke-width="1" fill="none" fill-rule="evenodd" sketch:type="MSPage">
        <g id="Medical" sketch:type="MSLayerGroup" transform="translate(-500.000000, -837.000000)" stroke-linecap="square" stroke="#ffffff" stroke-width="2">
            <g id="Femalenurse" transform="translate(506.000000, 843.000000)" sketch:type="MSShapeGroup">
                <path d="M48.3536611,11.3782753 C42.7629784,4.43945224 34.1953247,0 24.5907813,0 C14.986238,0 6.41858427,4.43945224 0.827901592,11.3782753 L9.74931523,23.2501734 C12.4342007,17.7641268 18.0712988,13.9861895 24.5907813,13.9861895 C31.1102639,13.9861895 36.747362,17.7641268 39.4322475,23.2501734 L48.3536611,11.3782753 Z" id="Oval-302"></path>
                <path d="M27,7 L21,7" id="Line"></path>
                <path d="M24,4 L24,10" id="Line-106"></path>
                <path d="M8.55015546,34.4409919 C6.52707533,35.0597363 4.65376944,36.2512665 3.19259256,37.9926293 C0.311707598,41.4259343 -0.186097923,46.065815 1.52325805,49.90152 C5.59751665,50.9188438 10.0804641,49.6228943 12.9613491,46.1895893 C13.6283803,45.3946523 14.1676563,44.5350317 14.5813605,43.6356858 C11.6302231,41.3834758 9.46059339,38.1593498 8.55015546,34.4409919 Z" id="Oval-303"></path>
                <path d="M42.9892884,34.4409919 C40.9662083,35.0597363 39.0929024,36.2512665 37.6317255,37.9926293 C34.7508406,41.4259343 34.253035,46.065815 35.962391,49.90152 C40.0366496,50.9188438 44.5195971,49.6228943 47.400482,46.1895893 C48.0675133,45.3946523 48.6067893,44.5350317 49.0204934,43.6356858 C46.069356,41.3834758 43.8997264,38.1593498 42.9892884,34.4409919 Z" id="Oval-305" transform="translate(42.000000, 42.339976) scale(-1, 1) translate(-42.000000, -42.339976) "></path>
                <ellipse id="Oval-304" cx="24.5976866" cy="30.5069053" rx="16.5069053" ry="16.5069053"></ellipse>
                <path d="M33,28 C33,26.3431458 31.6568542,25 30,25 C28.3431458,25 27,26.3431458 27,28" id="Oval-305"></path>
                <path d="M22,28 C22,26.3431458 20.6568542,25 19,25 C17.3431458,25 16,26.3431458 16,28" id="Oval-306"></path>
            </g>
        </g>
    </g>
</svg>