<?xml version="1.0" encoding="UTF-8" standalone="no"?>
<svg width="60px" height="60px" viewBox="0 0 60 60" version="1.1" xmlns="http://www.w3.org/2000/svg" xmlns:xlink="http://www.w3.org/1999/xlink" xmlns:sketch="http://www.bohemiancoding.com/sketch/ns">
    <!-- Generator: Sketch 3.2.2 (9983) - http://www.bohemiancoding.com/sketch -->
    <title>Pinlove</title>
    <desc>Created with Sketch.</desc>
    <defs></defs>
    <g id="stroked" stroke="none" stroke-width="1" fill="none" fill-rule="evenodd" sketch:type="MSPage">
        <g id="Transport" sketch:type="MSLayerGroup" transform="translate(-719.000000, -118.000000)" stroke="#ffffff" stroke-width="2" stroke-linecap="round" stroke-linejoin="round">
            <g id="Pinlove" transform="translate(728.000000, 122.000000)" sketch:type="MSShapeGroup">
                <path d="M0,21 L14,23.2173913 L14,55 L0,52.7826087 L0,21 Z" id="Rectangle-1679"></path>
                <path d="M28,21 L42,23.2173913 L42,55 L28,52.7826087 L28,21 Z" id="Rectangle-1679"></path>
                <path d="M14,21 L28,23.2173913 L28,55 L14,52.7826087 L14,21 Z" id="Rectangle-1679" transform="translate(21.000000, 38.000000) scale(-1, 1) translate(-21.000000, -38.000000) "></path>
                <path d="M24.4982476,15.2880978 C24.275375,15.5095565 24.0258914,15.70193 23.75,15.8612159 C23.0750586,16.2508935 22.307646,16.4046853 21.5,16.3493165 C20.692354,16.4046853 19.9249414,16.2508935 19.25,15.8612159 C18.9741086,15.70193 18.724625,15.5095565 18.5017524,15.2880978 C17.0971346,14.4070627 15.7574278,13.0176748 14.7368603,11.25 C12.3896501,7.1845127 12.6193906,2.65756713 15.25,1.13878407 C17.0127769,0.121044324 19.4063207,0.712335956 21.5,2.43653828 C23.5936793,0.712335956 25.9872231,0.121044324 27.75,1.13878407 C30.3806094,2.65756713 30.6103499,7.1845127 28.2631397,11.25 C27.2425722,13.0176748 25.9028654,14.4070627 24.4982476,15.2880978 Z" id="Oval-1473"></path>
            </g>
        </g>
    </g>
</svg>